<svg xmlns="http://www.w3.org/2000/svg" xmlns:xlink="http://www.w3.org/1999/xlink" width="400" zoomAndPan="magnify" viewBox="0 0 300 299.999988" height="400" preserveAspectRatio="xMidYMid meet" version="1.0"><defs><g/><clipPath id="a156ada6e9"><rect x="0" width="75" y="0" height="10"/></clipPath><clipPath id="20d5f4138a"><path d="M 96 77.207031 L 204 77.207031 L 204 155 L 96 155 Z M 96 77.207031 " clip-rule="nonzero"/></clipPath><clipPath id="a7f76b492f"><path d="M 78.902344 132 L 221.382812 132 L 221.382812 170.957031 L 78.902344 170.957031 Z M 78.902344 132 " clip-rule="nonzero"/></clipPath></defs><g fill="#1a1a1a" fill-opacity="1"><g transform="translate(32.72612, 193.082226)"><g><path d="M 1.9375 0 L 1.9375 -16.171875 L 5.0625 -16.171875 L 10.8125 -7.78125 L 16.546875 -16.171875 L 19.640625 -16.171875 L 19.640625 0 L 15.984375 0 L 15.984375 -9.734375 L 12.0625 -4 L 9.515625 -4 L 5.59375 -9.75 L 5.59375 0 Z M 1.9375 0 "/></g></g></g><g fill="#1a1a1a" fill-opacity="1"><g transform="translate(53.616724, 193.082226)"><g><path d="M 7.71875 0.328125 C 6.375 0.328125 5.191406 0.0546875 4.171875 -0.484375 C 3.148438 -1.023438 2.347656 -1.773438 1.765625 -2.734375 C 1.191406 -3.703125 0.90625 -4.816406 0.90625 -6.078125 C 0.90625 -7.335938 1.191406 -8.445312 1.765625 -9.40625 C 2.347656 -10.363281 3.148438 -11.109375 4.171875 -11.640625 C 5.191406 -12.179688 6.375 -12.453125 7.71875 -12.453125 C 9.0625 -12.453125 10.242188 -12.179688 11.265625 -11.640625 C 12.285156 -11.109375 13.082031 -10.363281 13.65625 -9.40625 C 14.226562 -8.445312 14.515625 -7.335938 14.515625 -6.078125 C 14.515625 -4.816406 14.226562 -3.703125 13.65625 -2.734375 C 13.082031 -1.773438 12.285156 -1.023438 11.265625 -0.484375 C 10.242188 0.0546875 9.0625 0.328125 7.71875 0.328125 Z M 4.375 -6.078125 C 4.375 -5.085938 4.679688 -4.273438 5.296875 -3.640625 C 5.921875 -3.015625 6.726562 -2.703125 7.71875 -2.703125 C 8.707031 -2.703125 9.507812 -3.015625 10.125 -3.640625 C 10.738281 -4.273438 11.046875 -5.085938 11.046875 -6.078125 C 11.046875 -7.078125 10.738281 -7.890625 10.125 -8.515625 C 9.507812 -9.140625 8.707031 -9.453125 7.71875 -9.453125 C 6.726562 -9.453125 5.921875 -9.140625 5.296875 -8.515625 C 4.679688 -7.890625 4.375 -7.078125 4.375 -6.078125 Z M 4.375 -6.078125 "/></g></g></g><g fill="#1a1a1a" fill-opacity="1"><g transform="translate(68.337132, 193.082226)"><g><path d="M 1.75 0 L 1.75 -12.125 L 4.375 -12.125 L 4.734375 -10.765625 C 5.234375 -11.335938 5.832031 -11.757812 6.53125 -12.03125 C 7.226562 -12.3125 7.976562 -12.453125 8.78125 -12.453125 C 10.363281 -12.453125 11.601562 -11.957031 12.5 -10.96875 C 13.40625 -9.988281 13.859375 -8.660156 13.859375 -6.984375 L 13.859375 0 L 10.359375 0 L 10.359375 -6.609375 C 10.359375 -7.503906 10.144531 -8.203125 9.71875 -8.703125 C 9.289062 -9.203125 8.703125 -9.453125 7.953125 -9.453125 C 7.148438 -9.453125 6.5 -9.171875 6 -8.609375 C 5.507812 -8.054688 5.265625 -7.304688 5.265625 -6.359375 L 5.265625 0 Z M 1.75 0 "/></g></g></g><g fill="#1a1a1a" fill-opacity="1"><g transform="translate(83.034435, 193.082226)"><g/></g></g><g fill="#1a1a1a" fill-opacity="1"><g transform="translate(87.77159, 193.082226)"><g><path d="M 1.9375 0 L 1.9375 -16.171875 L 9.171875 -16.171875 C 10.816406 -16.171875 12.125 -15.773438 13.09375 -14.984375 C 14.070312 -14.203125 14.5625 -13.148438 14.5625 -11.828125 C 14.5625 -11.078125 14.390625 -10.390625 14.046875 -9.765625 C 13.710938 -9.148438 13.238281 -8.664062 12.625 -8.3125 C 13.382812 -7.976562 13.976562 -7.476562 14.40625 -6.8125 C 14.832031 -6.15625 15.046875 -5.394531 15.046875 -4.53125 C 15.046875 -3.625 14.8125 -2.828125 14.34375 -2.140625 C 13.882812 -1.460938 13.242188 -0.9375 12.421875 -0.5625 C 11.597656 -0.1875 10.640625 0 9.546875 0 Z M 5.5625 -2.90625 L 8.984375 -2.90625 C 9.710938 -2.90625 10.273438 -3.070312 10.671875 -3.40625 C 11.078125 -3.75 11.28125 -4.234375 11.28125 -4.859375 C 11.28125 -5.472656 11.078125 -5.945312 10.671875 -6.28125 C 10.273438 -6.625 9.710938 -6.796875 8.984375 -6.796875 L 5.5625 -6.796875 Z M 5.5625 -9.59375 L 8.625 -9.59375 C 9.332031 -9.59375 9.875 -9.753906 10.25 -10.078125 C 10.625 -10.398438 10.8125 -10.851562 10.8125 -11.4375 C 10.8125 -12.019531 10.625 -12.46875 10.25 -12.78125 C 9.875 -13.101562 9.332031 -13.265625 8.625 -13.265625 L 5.5625 -13.265625 Z M 5.5625 -9.59375 "/></g></g></g><g fill="#1a1a1a" fill-opacity="1"><g transform="translate(103.000402, 193.082226)"><g><path d="M 7.71875 0.328125 C 6.375 0.328125 5.191406 0.0546875 4.171875 -0.484375 C 3.148438 -1.023438 2.347656 -1.773438 1.765625 -2.734375 C 1.191406 -3.703125 0.90625 -4.816406 0.90625 -6.078125 C 0.90625 -7.335938 1.191406 -8.445312 1.765625 -9.40625 C 2.347656 -10.363281 3.148438 -11.109375 4.171875 -11.640625 C 5.191406 -12.179688 6.375 -12.453125 7.71875 -12.453125 C 9.0625 -12.453125 10.242188 -12.179688 11.265625 -11.640625 C 12.285156 -11.109375 13.082031 -10.363281 13.65625 -9.40625 C 14.226562 -8.445312 14.515625 -7.335938 14.515625 -6.078125 C 14.515625 -4.816406 14.226562 -3.703125 13.65625 -2.734375 C 13.082031 -1.773438 12.285156 -1.023438 11.265625 -0.484375 C 10.242188 0.0546875 9.0625 0.328125 7.71875 0.328125 Z M 4.375 -6.078125 C 4.375 -5.085938 4.679688 -4.273438 5.296875 -3.640625 C 5.921875 -3.015625 6.726562 -2.703125 7.71875 -2.703125 C 8.707031 -2.703125 9.507812 -3.015625 10.125 -3.640625 C 10.738281 -4.273438 11.046875 -5.085938 11.046875 -6.078125 C 11.046875 -7.078125 10.738281 -7.890625 10.125 -8.515625 C 9.507812 -9.140625 8.707031 -9.453125 7.71875 -9.453125 C 6.726562 -9.453125 5.921875 -9.140625 5.296875 -8.515625 C 4.679688 -7.890625 4.375 -7.078125 4.375 -6.078125 Z M 4.375 -6.078125 "/></g></g></g><g fill="#1a1a1a" fill-opacity="1"><g transform="translate(117.720811, 193.082226)"><g><path d="M 1.75 0 L 1.75 -12.125 L 5.265625 -12.125 L 5.265625 0 Z M 1.25 -16.0625 C 1.25 -16.707031 1.457031 -17.234375 1.875 -17.640625 C 2.300781 -18.046875 2.847656 -18.25 3.515625 -18.25 C 4.191406 -18.25 4.738281 -18.046875 5.15625 -17.640625 C 5.570312 -17.234375 5.78125 -16.707031 5.78125 -16.0625 C 5.78125 -15.414062 5.570312 -14.882812 5.15625 -14.46875 C 4.738281 -14.0625 4.191406 -13.859375 3.515625 -13.859375 C 2.847656 -13.859375 2.300781 -14.0625 1.875 -14.46875 C 1.457031 -14.882812 1.25 -15.414062 1.25 -16.0625 Z M 1.25 -16.0625 "/></g></g></g><g fill="#1a1a1a" fill-opacity="1"><g transform="translate(124.052517, 193.082226)"><g><path d="M 6.421875 0.328125 C 5.316406 0.328125 4.347656 0.148438 3.515625 -0.203125 C 2.691406 -0.554688 2.050781 -1.050781 1.59375 -1.6875 C 1.144531 -2.320312 0.921875 -3.0625 0.921875 -3.90625 L 4.375 -3.90625 C 4.382812 -3.414062 4.570312 -3.019531 4.9375 -2.71875 C 5.3125 -2.425781 5.820312 -2.28125 6.46875 -2.28125 C 7.019531 -2.28125 7.453125 -2.382812 7.765625 -2.59375 C 8.078125 -2.800781 8.234375 -3.082031 8.234375 -3.4375 C 8.234375 -3.820312 8.023438 -4.140625 7.609375 -4.390625 C 7.191406 -4.648438 6.507812 -4.859375 5.5625 -5.015625 C 4.03125 -5.296875 2.898438 -5.742188 2.171875 -6.359375 C 1.453125 -6.972656 1.09375 -7.78125 1.09375 -8.78125 C 1.09375 -9.96875 1.535156 -10.875 2.421875 -11.5 C 3.304688 -12.132812 4.5625 -12.453125 6.1875 -12.453125 C 7.8125 -12.453125 9.082031 -12.101562 10 -11.40625 C 10.914062 -10.71875 11.410156 -9.734375 11.484375 -8.453125 L 8.140625 -8.453125 C 8.109375 -8.921875 7.914062 -9.28125 7.5625 -9.53125 C 7.21875 -9.78125 6.753906 -9.90625 6.171875 -9.90625 C 5.648438 -9.90625 5.238281 -9.804688 4.9375 -9.609375 C 4.632812 -9.410156 4.484375 -9.132812 4.484375 -8.78125 C 4.484375 -8.414062 4.675781 -8.128906 5.0625 -7.921875 C 5.457031 -7.710938 6.171875 -7.5 7.203125 -7.28125 C 10.191406 -6.675781 11.6875 -5.390625 11.6875 -3.421875 C 11.6875 -2.265625 11.21875 -1.347656 10.28125 -0.671875 C 9.351562 -0.00390625 8.066406 0.328125 6.421875 0.328125 Z M 6.421875 0.328125 "/></g></g></g><g fill="#1a1a1a" fill-opacity="1"><g transform="translate(140.736949, 193.082226)"><g><path d="M 7.078125 0.328125 C 5.867188 0.328125 4.800781 0.0546875 3.875 -0.484375 C 2.957031 -1.035156 2.234375 -1.789062 1.703125 -2.75 C 1.171875 -3.71875 0.90625 -4.828125 0.90625 -6.078125 C 0.90625 -7.328125 1.171875 -8.425781 1.703125 -9.375 C 2.234375 -10.332031 2.957031 -11.082031 3.875 -11.625 C 4.800781 -12.175781 5.867188 -12.453125 7.078125 -12.453125 C 7.828125 -12.453125 8.523438 -12.335938 9.171875 -12.109375 C 9.816406 -11.890625 10.40625 -11.582031 10.9375 -11.1875 L 10.9375 -17.09375 L 14.4375 -17.09375 L 14.4375 0 L 11.828125 0 L 11.421875 -1.390625 C 10.878906 -0.847656 10.238281 -0.425781 9.5 -0.125 C 8.757812 0.175781 7.953125 0.328125 7.078125 0.328125 Z M 4.375 -6.078125 C 4.375 -5.085938 4.679688 -4.273438 5.296875 -3.640625 C 5.921875 -3.015625 6.726562 -2.703125 7.71875 -2.703125 C 8.707031 -2.703125 9.507812 -3.015625 10.125 -3.640625 C 10.738281 -4.273438 11.046875 -5.085938 11.046875 -6.078125 C 11.046875 -7.066406 10.738281 -7.875 10.125 -8.5 C 9.507812 -9.132812 8.707031 -9.453125 7.71875 -9.453125 C 6.726562 -9.453125 5.921875 -9.132812 5.296875 -8.5 C 4.679688 -7.875 4.375 -7.066406 4.375 -6.078125 Z M 4.375 -6.078125 "/></g></g></g><g fill="#1a1a1a" fill-opacity="1"><g transform="translate(156.243074, 193.082226)"><g><path d="M 7.484375 0.328125 C 6.191406 0.328125 5.046875 0.0546875 4.046875 -0.484375 C 3.054688 -1.023438 2.285156 -1.773438 1.734375 -2.734375 C 1.179688 -3.703125 0.90625 -4.816406 0.90625 -6.078125 C 0.90625 -7.335938 1.1875 -8.445312 1.75 -9.40625 C 2.3125 -10.363281 3.085938 -11.109375 4.078125 -11.640625 C 5.066406 -12.179688 6.21875 -12.453125 7.53125 -12.453125 C 8.914062 -12.453125 10.113281 -12.144531 11.125 -11.53125 C 12.132812 -10.914062 12.90625 -10.050781 13.4375 -8.9375 C 13.96875 -7.832031 14.195312 -6.539062 14.125 -5.0625 L 4.390625 -5.0625 C 4.554688 -4.226562 4.925781 -3.59375 5.5 -3.15625 C 6.070312 -2.71875 6.757812 -2.5 7.5625 -2.5 C 8.144531 -2.5 8.675781 -2.609375 9.15625 -2.828125 C 9.644531 -3.054688 10.035156 -3.367188 10.328125 -3.765625 L 13.890625 -3.765625 C 13.367188 -2.484375 12.546875 -1.476562 11.421875 -0.75 C 10.296875 -0.03125 8.984375 0.328125 7.484375 0.328125 Z M 4.40625 -7.28125 L 10.71875 -7.28125 C 10.519531 -8.019531 10.144531 -8.597656 9.59375 -9.015625 C 9.050781 -9.441406 8.375 -9.65625 7.5625 -9.65625 C 6.789062 -9.65625 6.125 -9.441406 5.5625 -9.015625 C 5 -8.597656 4.613281 -8.019531 4.40625 -7.28125 Z M 4.40625 -7.28125 "/></g></g></g><g fill="#1a1a1a" fill-opacity="1"><g transform="translate(170.547512, 193.082226)"><g/></g></g><g fill="#1a1a1a" fill-opacity="1"><g transform="translate(175.284668, 193.082226)"><g><path d="M 7.53125 0.328125 C 6.238281 0.328125 5.09375 0.0546875 4.09375 -0.484375 C 3.09375 -1.035156 2.3125 -1.789062 1.75 -2.75 C 1.1875 -3.71875 0.90625 -4.828125 0.90625 -6.078125 C 0.90625 -7.328125 1.1875 -8.425781 1.75 -9.375 C 2.3125 -10.332031 3.09375 -11.082031 4.09375 -11.625 C 5.09375 -12.175781 6.238281 -12.453125 7.53125 -12.453125 C 8.65625 -12.453125 9.675781 -12.25 10.59375 -11.84375 C 11.507812 -11.4375 12.265625 -10.859375 12.859375 -10.109375 C 13.460938 -9.359375 13.859375 -8.484375 14.046875 -7.484375 L 10.671875 -7.484375 C 10.378906 -8.097656 9.960938 -8.578125 9.421875 -8.921875 C 8.890625 -9.273438 8.273438 -9.453125 7.578125 -9.453125 C 6.640625 -9.453125 5.867188 -9.140625 5.265625 -8.515625 C 4.671875 -7.890625 4.375 -7.078125 4.375 -6.078125 C 4.375 -5.085938 4.671875 -4.273438 5.265625 -3.640625 C 5.867188 -3.015625 6.640625 -2.703125 7.578125 -2.703125 C 8.316406 -2.703125 8.96875 -2.894531 9.53125 -3.28125 C 10.09375 -3.675781 10.5 -4.207031 10.75 -4.875 L 14.171875 -4.875 C 13.953125 -3.8125 13.535156 -2.890625 12.921875 -2.109375 C 12.316406 -1.335938 11.550781 -0.738281 10.625 -0.3125 C 9.707031 0.113281 8.675781 0.328125 7.53125 0.328125 Z M 7.53125 0.328125 "/></g></g></g><g fill="#1a1a1a" fill-opacity="1"><g transform="translate(189.612212, 193.082226)"><g><path d="M 1.75 0 L 1.75 -17.09375 L 5.265625 -17.09375 L 5.265625 -11.203125 C 5.734375 -11.617188 6.273438 -11.929688 6.890625 -12.140625 C 7.503906 -12.347656 8.148438 -12.453125 8.828125 -12.453125 C 10.398438 -12.453125 11.628906 -11.96875 12.515625 -11 C 13.410156 -10.03125 13.859375 -8.695312 13.859375 -7 L 13.859375 0 L 10.359375 0 L 10.359375 -6.65625 C 10.359375 -7.550781 10.144531 -8.238281 9.71875 -8.71875 C 9.289062 -9.207031 8.703125 -9.453125 7.953125 -9.453125 C 7.148438 -9.453125 6.5 -9.175781 6 -8.625 C 5.507812 -8.082031 5.265625 -7.332031 5.265625 -6.375 L 5.265625 0 Z M 1.75 0 "/></g></g></g><g fill="#1a1a1a" fill-opacity="1"><g transform="translate(204.309515, 193.082226)"><g><path d="M 5.796875 0.234375 C 4.367188 0.234375 3.238281 -0.0976562 2.40625 -0.765625 C 1.570312 -1.441406 1.15625 -2.363281 1.15625 -3.53125 C 1.15625 -4.65625 1.523438 -5.550781 2.265625 -6.21875 C 3.015625 -6.894531 4.023438 -7.234375 5.296875 -7.234375 L 9.6875 -7.234375 L 9.6875 -7.78125 C 9.6875 -8.382812 9.46875 -8.867188 9.03125 -9.234375 C 8.601562 -9.597656 8.039062 -9.78125 7.34375 -9.78125 C 6.78125 -9.78125 6.296875 -9.644531 5.890625 -9.375 C 5.492188 -9.113281 5.238281 -8.769531 5.125 -8.34375 L 1.75 -8.34375 C 1.96875 -9.664062 2.566406 -10.679688 3.546875 -11.390625 C 4.523438 -12.097656 5.785156 -12.453125 7.328125 -12.453125 C 9.140625 -12.453125 10.554688 -11.992188 11.578125 -11.078125 C 12.609375 -10.160156 13.125 -8.898438 13.125 -7.296875 L 13.125 0 L 10.515625 0 L 10.125 -1.40625 C 9.0625 -0.3125 7.617188 0.234375 5.796875 0.234375 Z M 4.625 -3.671875 C 4.625 -3.253906 4.800781 -2.914062 5.15625 -2.65625 C 5.519531 -2.40625 6.003906 -2.28125 6.609375 -2.28125 C 7.484375 -2.28125 8.207031 -2.535156 8.78125 -3.046875 C 9.363281 -3.554688 9.671875 -4.21875 9.703125 -5.03125 L 6.375 -5.03125 C 5.851562 -5.03125 5.429688 -4.90625 5.109375 -4.65625 C 4.785156 -4.414062 4.625 -4.085938 4.625 -3.671875 Z M 4.625 -3.671875 "/></g></g></g><g fill="#1a1a1a" fill-opacity="1"><g transform="translate(218.267311, 193.082226)"><g><path d="M 6.59375 0.328125 C 5.019531 0.328125 3.78125 -0.164062 2.875 -1.15625 C 1.976562 -2.15625 1.53125 -3.492188 1.53125 -5.171875 L 1.53125 -12.125 L 5.03125 -12.125 L 5.03125 -5.515625 C 5.03125 -4.628906 5.242188 -3.9375 5.671875 -3.4375 C 6.097656 -2.945312 6.679688 -2.703125 7.421875 -2.703125 C 8.222656 -2.703125 8.859375 -2.976562 9.328125 -3.53125 C 9.804688 -4.09375 10.046875 -4.847656 10.046875 -5.796875 L 10.046875 -12.125 L 13.5625 -12.125 L 13.5625 0 L 10.953125 0 L 10.578125 -1.359375 C 10.109375 -0.796875 9.523438 -0.375 8.828125 -0.09375 C 8.128906 0.1875 7.382812 0.328125 6.59375 0.328125 Z M 6.59375 0.328125 "/></g></g></g><g fill="#1a1a1a" fill-opacity="1"><g transform="translate(232.895285, 193.082226)"><g><path d="M 2.953125 -13.109375 C 2.953125 -14.535156 3.34375 -15.628906 4.125 -16.390625 C 4.90625 -17.160156 6.019531 -17.546875 7.46875 -17.546875 L 10.140625 -17.546875 L 10.140625 -14.765625 L 8.234375 -14.765625 C 7.597656 -14.765625 7.132812 -14.613281 6.84375 -14.3125 C 6.550781 -14.007812 6.40625 -13.546875 6.40625 -12.921875 L 6.40625 -12.125 L 10.03125 -12.125 L 10.03125 -9.265625 L 6.46875 -9.265625 L 6.46875 0 L 2.953125 0 L 2.953125 -9.265625 L 0.53125 -9.265625 L 0.53125 -12.125 L 2.953125 -12.125 Z M 2.953125 -13.109375 "/></g></g></g><g fill="#1a1a1a" fill-opacity="1"><g transform="translate(242.577833, 193.082226)"><g><path d="M 2.953125 -13.109375 C 2.953125 -14.535156 3.34375 -15.628906 4.125 -16.390625 C 4.90625 -17.160156 6.019531 -17.546875 7.46875 -17.546875 L 10.140625 -17.546875 L 10.140625 -14.765625 L 8.234375 -14.765625 C 7.597656 -14.765625 7.132812 -14.613281 6.84375 -14.3125 C 6.550781 -14.007812 6.40625 -13.546875 6.40625 -12.921875 L 6.40625 -12.125 L 10.03125 -12.125 L 10.03125 -9.265625 L 6.46875 -9.265625 L 6.46875 0 L 2.953125 0 L 2.953125 -9.265625 L 0.53125 -9.265625 L 0.53125 -12.125 L 2.953125 -12.125 Z M 2.953125 -13.109375 "/></g></g></g><g fill="#1a1a1a" fill-opacity="1"><g transform="translate(252.260404, 193.082226)"><g><path d="M 7.484375 0.328125 C 6.191406 0.328125 5.046875 0.0546875 4.046875 -0.484375 C 3.054688 -1.023438 2.285156 -1.773438 1.734375 -2.734375 C 1.179688 -3.703125 0.90625 -4.816406 0.90625 -6.078125 C 0.90625 -7.335938 1.1875 -8.445312 1.75 -9.40625 C 2.3125 -10.363281 3.085938 -11.109375 4.078125 -11.640625 C 5.066406 -12.179688 6.21875 -12.453125 7.53125 -12.453125 C 8.914062 -12.453125 10.113281 -12.144531 11.125 -11.53125 C 12.132812 -10.914062 12.90625 -10.050781 13.4375 -8.9375 C 13.96875 -7.832031 14.195312 -6.539062 14.125 -5.0625 L 4.390625 -5.0625 C 4.554688 -4.226562 4.925781 -3.59375 5.5 -3.15625 C 6.070312 -2.71875 6.757812 -2.5 7.5625 -2.5 C 8.144531 -2.5 8.675781 -2.609375 9.15625 -2.828125 C 9.644531 -3.054688 10.035156 -3.367188 10.328125 -3.765625 L 13.890625 -3.765625 C 13.367188 -2.484375 12.546875 -1.476562 11.421875 -0.75 C 10.296875 -0.03125 8.984375 0.328125 7.484375 0.328125 Z M 4.40625 -7.28125 L 10.71875 -7.28125 C 10.519531 -8.019531 10.144531 -8.597656 9.59375 -9.015625 C 9.050781 -9.441406 8.375 -9.65625 7.5625 -9.65625 C 6.789062 -9.65625 6.125 -9.441406 5.5625 -9.015625 C 5 -8.597656 4.613281 -8.019531 4.40625 -7.28125 Z M 4.40625 -7.28125 "/></g></g></g><g transform="matrix(1, 0, 0, 1, 115, 211)"><g clip-path="url(#a156ada6e9)"><g fill="#1a1a1a" fill-opacity="1"><g transform="translate(1.140956, 7.232071)"><g><path d="M 2.5625 -4.78125 C 3.175781 -4.78125 3.65625 -4.632812 4 -4.34375 C 4.34375 -4.050781 4.515625 -3.648438 4.515625 -3.140625 C 4.515625 -2.628906 4.34375 -2.226562 4 -1.9375 C 3.65625 -1.65625 3.175781 -1.515625 2.5625 -1.515625 L 1.28125 -1.515625 L 1.28125 0 L 0.78125 0 L 0.78125 -4.78125 Z M 2.546875 -1.953125 C 3.023438 -1.953125 3.390625 -2.054688 3.640625 -2.265625 C 3.890625 -2.472656 4.015625 -2.765625 4.015625 -3.140625 C 4.015625 -3.523438 3.890625 -3.820312 3.640625 -4.03125 C 3.390625 -4.238281 3.023438 -4.34375 2.546875 -4.34375 L 1.28125 -4.34375 L 1.28125 -1.953125 Z M 2.546875 -1.953125 "/></g></g></g><g fill="#1a1a1a" fill-opacity="1"><g transform="translate(11.506668, 7.232071)"><g><path d="M 4.046875 0 L 2.953125 -1.53125 C 2.828125 -1.519531 2.695312 -1.515625 2.5625 -1.515625 L 1.28125 -1.515625 L 1.28125 0 L 0.78125 0 L 0.78125 -4.78125 L 2.5625 -4.78125 C 3.175781 -4.78125 3.65625 -4.632812 4 -4.34375 C 4.34375 -4.050781 4.515625 -3.648438 4.515625 -3.140625 C 4.515625 -2.765625 4.421875 -2.445312 4.234375 -2.1875 C 4.046875 -1.9375 3.773438 -1.753906 3.421875 -1.640625 L 4.59375 0 Z M 2.546875 -1.953125 C 3.023438 -1.953125 3.390625 -2.054688 3.640625 -2.265625 C 3.890625 -2.472656 4.015625 -2.765625 4.015625 -3.140625 C 4.015625 -3.523438 3.890625 -3.820312 3.640625 -4.03125 C 3.390625 -4.238281 3.023438 -4.34375 2.546875 -4.34375 L 1.28125 -4.34375 L 1.28125 -1.953125 Z M 2.546875 -1.953125 "/></g></g></g><g fill="#1a1a1a" fill-opacity="1"><g transform="translate(21.906521, 7.232071)"><g><path d="M 4.15625 -0.4375 L 4.15625 0 L 0.78125 0 L 0.78125 -4.78125 L 4.0625 -4.78125 L 4.0625 -4.34375 L 1.28125 -4.34375 L 1.28125 -2.640625 L 3.75 -2.640625 L 3.75 -2.21875 L 1.28125 -2.21875 L 1.28125 -0.4375 Z M 4.15625 -0.4375 "/></g></g></g><g fill="#1a1a1a" fill-opacity="1"><g transform="translate(31.937638, 7.232071)"><g><path d="M 5.75 -4.78125 L 5.75 0 L 5.25 0 L 5.25 -3.828125 L 3.375 -0.609375 L 3.140625 -0.609375 L 1.265625 -3.796875 L 1.265625 0 L 0.78125 0 L 0.78125 -4.78125 L 1.1875 -4.78125 L 3.265625 -1.234375 L 5.328125 -4.78125 Z M 5.75 -4.78125 "/></g></g></g><g fill="#1a1a1a" fill-opacity="1"><g transform="translate(43.921722, 7.232071)"><g><path d="M 0.78125 -4.78125 L 1.28125 -4.78125 L 1.28125 0 L 0.78125 0 Z M 0.78125 -4.78125 "/></g></g></g><g fill="#1a1a1a" fill-opacity="1"><g transform="translate(51.446753, 7.232071)"><g><path d="M 2.703125 0.046875 C 2.085938 0.046875 1.601562 -0.128906 1.25 -0.484375 C 0.90625 -0.847656 0.734375 -1.367188 0.734375 -2.046875 L 0.734375 -4.78125 L 1.25 -4.78125 L 1.25 -2.0625 C 1.25 -1.507812 1.375 -1.09375 1.625 -0.8125 C 1.875 -0.539062 2.234375 -0.40625 2.703125 -0.40625 C 3.179688 -0.40625 3.546875 -0.539062 3.796875 -0.8125 C 4.046875 -1.09375 4.171875 -1.507812 4.171875 -2.0625 L 4.171875 -4.78125 L 4.65625 -4.78125 L 4.65625 -2.046875 C 4.65625 -1.367188 4.484375 -0.847656 4.140625 -0.484375 C 3.796875 -0.128906 3.316406 0.046875 2.703125 0.046875 Z M 2.703125 0.046875 "/></g></g></g><g fill="#1a1a1a" fill-opacity="1"><g transform="translate(62.317784, 7.232071)"><g><path d="M 5.75 -4.78125 L 5.75 0 L 5.25 0 L 5.25 -3.828125 L 3.375 -0.609375 L 3.140625 -0.609375 L 1.265625 -3.796875 L 1.265625 0 L 0.78125 0 L 0.78125 -4.78125 L 1.1875 -4.78125 L 3.265625 -1.234375 L 5.328125 -4.78125 Z M 5.75 -4.78125 "/></g></g></g></g></g><g clip-path="url(#20d5f4138a)"><path fill="#ff300b" d="M 173.660156 86.96875 C 173.660156 86.96875 172.207031 86.96875 171.191406 85.515625 C 170.175781 84.0625 167.269531 80.214844 165.890625 80.722656 C 164.511719 81.230469 163.128906 80.507812 161.824219 79.5625 C 160.515625 78.617188 162.039062 77.746094 159.570312 78.472656 C 157.101562 79.199219 157.828125 78.90625 157.03125 79.269531 C 156.230469 79.632812 153.90625 78.6875 152.816406 78.398438 C 151.730469 78.109375 153.980469 77.808594 150.929688 77.808594 C 147.878906 77.808594 149.914062 77.21875 146.789062 77.808594 C 143.667969 78.398438 142.359375 77.808594 141.5625 77.808594 C 140.761719 77.808594 137.710938 78.324219 137.203125 79.054688 C 136.695312 79.777344 136.695312 80.359375 135.96875 80.722656 C 135.242188 81.085938 134.953125 80.941406 132.554688 82.175781 C 130.160156 83.410156 133.933594 83.703125 129.214844 83.554688 C 124.492188 83.410156 126.453125 86.027344 123.914062 85.734375 C 121.371094 85.445312 119.917969 84.425781 119.554688 85.371094 C 119.191406 86.3125 117.230469 90.089844 116.144531 90.890625 C 115.054688 91.691406 113.890625 90.3125 113.890625 92.5625 C 113.890625 94.8125 113.890625 94.015625 111.859375 94.8125 C 109.824219 95.613281 109.097656 96.847656 108.152344 98.734375 C 107.210938 100.625 106.121094 99.53125 105.03125 102.21875 C 103.941406 104.910156 103.144531 105.054688 102.996094 106.796875 C 102.851562 108.539062 103.796875 109.554688 102.5625 110.574219 C 101.328125 111.589844 98.710938 109.992188 97.988281 112.027344 C 97.261719 114.058594 97.625 113.695312 97.988281 117.035156 C 98.351562 120.375 97.332031 121.683594 96.824219 124.226562 C 96.316406 126.765625 96.386719 126.113281 96.605469 128.148438 C 96.824219 130.179688 96.082031 137.515625 96.082031 137.515625 C 96.082031 137.515625 99.730469 136.789062 98.710938 139.984375 C 97.695312 143.179688 95.515625 145.503906 97.40625 147.539062 C 99.292969 149.570312 101.617188 150.003906 101.910156 151.457031 C 102.050781 152.175781 102.371094 153.589844 102.8125 154.933594 L 108.191406 152.132812 C 106.117188 147.960938 104.46875 143.425781 103.882812 139.246094 C 103.011719 133.039062 103.074219 124.332031 104.660156 118.28125 C 106.261719 112.539062 109.589844 108.097656 113.003906 103.378906 C 115.769531 99.546875 115.871094 96.789062 120.65625 95.054688 C 123.757812 93.933594 125.21875 93.410156 128.203125 91.96875 C 130.222656 90.992188 132.089844 90.222656 134.183594 89.433594 C 140.582031 86.777344 139.523438 82.601562 148.191406 84.492188 C 150.949219 85.105469 153.382812 85.730469 156.203125 86.257812 C 161.851562 87.308594 165.292969 89.074219 170.308594 91.738281 C 174.007812 93.703125 176.941406 95.890625 180.289062 98.359375 C 183.554688 100.773438 185.390625 102.558594 187.878906 105.757812 C 189.878906 108.367188 191.3125 109.410156 193.378906 111.589844 C 196.523438 114.90625 195.511719 118.722656 195.214844 122.910156 C 194.640625 130.964844 195.453125 137.347656 193.621094 145.566406 C 193.195312 147.46875 192.578125 149.761719 191.761719 152.105469 L 195.003906 153.796875 C 196.734375 152.554688 199.527344 147.511719 197.773438 145.503906 C 195.738281 143.179688 196.609375 137.367188 198.789062 137.515625 C 200.96875 137.660156 205.148438 138.386719 203.566406 135.046875 C 201.984375 131.703125 200.824219 128.800781 200.96875 127.640625 C 201.113281 126.476562 201.695312 122.84375 201.695312 122.84375 C 201.695312 122.84375 204.015625 120.230469 202.128906 119.359375 C 200.242188 118.484375 198.5 118.484375 198.5 116.453125 C 198.5 114.421875 199.949219 112.386719 198.0625 111.660156 C 196.175781 110.933594 195.59375 110.5 195.59375 108.609375 C 195.59375 106.722656 197.917969 104.542969 194.722656 103.382812 C 191.527344 102.21875 190.65625 103.671875 189.929688 99.605469 C 189.203125 95.539062 189.058594 94.085938 188.039062 94.085938 C 187.023438 94.085938 185.714844 94.230469 183.683594 90.746094 C 181.648438 87.257812 182.085938 86.023438 180.632812 86.386719 C 179.179688 86.75 176.128906 84.789062 173.660156 86.96875 " fill-opacity="1" fill-rule="evenodd"/></g><path fill="#ff300b" d="M 113.847656 107.136719 C 114.175781 106.628906 114.5 106.117188 114.816406 105.597656 C 114.480469 106.074219 114.085938 106.757812 113.765625 107.269531 Z M 110.488281 150.9375 C 109.988281 149.9375 109.519531 148.914062 109.082031 147.878906 C 108.140625 145.621094 107.753906 144.167969 107.230469 141.796875 C 106.644531 139.054688 106.300781 136.316406 106.121094 133.515625 C 106 131.597656 106.097656 130.101562 106.375 128.207031 C 106.621094 126.503906 106.363281 124.785156 106.535156 123.023438 C 106.980469 118.949219 108.082031 115.964844 110.390625 112.589844 C 111.957031 110.285156 113.300781 107.882812 114.824219 105.558594 C 114.835938 105.539062 117.375 101.296875 118.328125 100.097656 C 119.636719 98.453125 120.980469 97.605469 122.945312 96.878906 C 124.734375 96.238281 126.078125 95.832031 127.824219 94.992188 C 130.289062 93.800781 131.886719 92.953125 134.574219 92.191406 C 138.882812 91 139.351562 88.382812 142.328125 87.226562 C 144.304688 86.457031 146.410156 86.992188 148.398438 87.410156 C 151.164062 87.988281 153.925781 88.523438 156.699219 89.0625 C 159.960938 89.691406 164.453125 91.429688 167.410156 92.96875 C 170.269531 94.460938 172.558594 95.808594 175.195312 97.679688 C 176.199219 98.394531 177.191406 99.125 178.183594 99.859375 L 178.457031 100.0625 L 178.460938 100.0625 C 181.464844 102.289062 182.738281 103.523438 185.019531 106.480469 C 186.375 108.246094 187.535156 109.332031 189.214844 110.914062 C 192.085938 113.628906 193.226562 115.523438 193.019531 119.566406 C 192.914062 121.628906 192.546875 122.921875 192.082031 124.886719 C 191.488281 127.390625 192.453125 128.710938 192.425781 131.179688 C 192.402344 133.261719 192.082031 135.148438 192.082031 137.246094 C 192.082031 141.800781 190.902344 146.589844 189.398438 150.875 L 186.152344 149.183594 C 186.222656 148.996094 186.300781 148.796875 186.386719 148.574219 C 186.984375 147.039062 187.761719 145.050781 187.902344 143.425781 C 188.046875 141.769531 188.144531 141.421875 188.621094 139.855469 C 189.453125 137.128906 189.347656 135.585938 189.128906 132.832031 C 188.929688 130.308594 189.289062 129.507812 189.789062 127.140625 C 190.214844 125.132812 189.847656 123.21875 189.921875 121.148438 C 190.027344 118.332031 190.3125 116.386719 188.175781 114.210938 C 186.390625 112.386719 184.992188 110.867188 183.453125 108.796875 C 183.460938 108.804688 182.257812 107.308594 181.601562 106.625 C 180.101562 105.070312 178.511719 103.460938 176.464844 102.664062 C 175.496094 102.285156 174.53125 102.0625 173.585938 101.722656 C 170.902344 100.75 171.386719 99.179688 169.097656 98.015625 C 167.972656 97.441406 167.085938 97.03125 165.976562 96.386719 C 164.777344 95.6875 163.894531 95.632812 162.703125 95.183594 C 161.179688 94.609375 161.144531 93.28125 159.296875 92.566406 C 157.453125 91.855469 154.785156 91.3125 152.820312 90.871094 C 152.421875 90.78125 152.027344 90.6875 151.632812 90.589844 C 148.363281 89.789062 144.507812 88.597656 141.367188 90.449219 C 139.460938 91.574219 137.996094 93.183594 135.980469 94.289062 C 135.988281 94.277344 133.625 95.382812 132.785156 95.765625 C 130.675781 96.71875 128.664062 97.734375 126.585938 98.726562 C 125.230469 99.371094 124.195312 99.75 122.785156 100.25 C 120.304688 101.125 120.511719 101.925781 119.980469 104.289062 C 119.535156 106.285156 118.835938 106.582031 117.558594 108.03125 C 117.304688 108.320312 117.042969 108.601562 116.792969 108.894531 C 116.90625 108.757812 118.066406 107.507812 117.316406 108.300781 C 116.726562 108.929688 116.429688 109.289062 115.949219 110.03125 C 116.21875 109.632812 116.449219 109.285156 116.765625 108.917969 C 115.589844 110.3125 114.789062 112.089844 113.535156 113.46875 C 110.460938 116.855469 111.390625 117.46875 110.128906 121.382812 C 108.957031 125.089844 108.21875 132.070312 109.128906 135.816406 C 109.359375 136.777344 109.601562 137.542969 109.792969 138.53125 C 110.042969 139.804688 110.300781 139.894531 110.769531 140.941406 C 111.410156 142.375 110.605469 143.058594 111.917969 144.507812 C 112.484375 145.132812 113.085938 146.015625 113.636719 146.707031 C 114.246094 147.46875 114.621094 148.007812 114.90625 148.632812 Z M 110.488281 150.9375 " fill-opacity="1" fill-rule="nonzero"/><path fill="#ff300b" d="M 116.847656 147.625 C 116.4375 146.449219 116.394531 145.925781 115.191406 144.320312 C 113.882812 142.578125 113.558594 141.394531 113.074219 139.316406 C 112.386719 136.359375 112.195312 133.421875 112.183594 130.398438 C 112.175781 127.984375 112.644531 125.1875 113.035156 122.777344 C 114.011719 116.765625 115.964844 114.328125 119.421875 109.46875 C 120.324219 108.199219 121.152344 107.097656 122.007812 105.757812 C 124.464844 101.972656 126.058594 102.484375 129.761719 100.699219 C 132.09375 99.578125 134.257812 98.105469 136.621094 97.023438 C 138.699219 96.074219 140.535156 94.792969 141.972656 93.007812 C 143.582031 91.015625 144.050781 90.863281 146.414062 91.925781 C 148.175781 92.71875 149.003906 93.273438 151.03125 93.824219 C 153.925781 94.609375 156.609375 94.875 159.503906 95.894531 C 159.996094 96.070312 160.480469 96.257812 160.964844 96.453125 C 162.777344 97.203125 164.445312 98.074219 166.414062 99.121094 C 168.3125 100.140625 169.726562 101.117188 171.492188 102.300781 C 173.464844 103.617188 174.300781 103.746094 175.878906 105.449219 C 177.058594 106.71875 178.089844 107.757812 179.328125 108.960938 C 180.8125 110.410156 182.027344 112.105469 183.523438 113.664062 C 184.054688 114.214844 184.546875 114.746094 185.039062 115.332031 C 186.957031 117.648438 186.460938 119.898438 186.316406 122.667969 C 186.1875 125.101562 186.136719 127.539062 186.058594 129.976562 C 186 131.910156 186.058594 133.625 185.886719 135.585938 C 185.707031 137.667969 185.535156 138.792969 184.941406 140.792969 C 184.132812 143.535156 184.8125 144.460938 184.582031 147.003906 C 184.542969 147.445312 184.472656 147.863281 184.375 148.261719 L 181.257812 146.636719 C 182.050781 144.664062 183.320312 144.140625 183.449219 141.457031 C 183.519531 140.054688 183.542969 138.640625 183.609375 137.226562 C 183.714844 134.976562 183.804688 132.675781 183.886719 130.425781 C 183.945312 128.726562 183.929688 127.277344 184.09375 125.550781 C 184.257812 123.867188 184.703125 121.066406 184.265625 119.542969 C 183.089844 115.714844 179.824219 115.328125 178.492188 111.804688 C 177.671875 109.640625 176.539062 109.519531 175.027344 108.007812 C 173.730469 106.714844 173.753906 106.761719 172.292969 106.195312 C 171.09375 105.722656 169.726562 104.578125 168.601562 103.824219 C 167.441406 103.046875 166.289062 102.347656 165.054688 101.6875 C 163.109375 100.652344 161.476562 99.796875 159.863281 99.132812 C 158.238281 98.460938 156.554688 97.941406 154.464844 97.550781 C 152.355469 97.152344 150.335938 96.683594 148.265625 96.117188 C 146.746094 95.707031 144.585938 95.625 143.199219 96.53125 C 142.25 97.15625 141.386719 98.0625 140.347656 98.753906 C 138.78125 99.789062 137.039062 100.296875 135.292969 100.933594 C 133.453125 101.605469 131.96875 102.019531 130.164062 102.878906 C 129.058594 103.402344 127.96875 103.816406 126.875 104.308594 C 124.6875 105.300781 123.894531 106.734375 122.832031 108.765625 C 121.929688 110.5 121.515625 110.820312 120.285156 112.371094 C 119.335938 113.570312 118.640625 115.050781 117.820312 116.367188 C 116.402344 118.648438 115.230469 121.691406 114.855469 124.371094 C 114.585938 126.296875 114.753906 128.414062 114.664062 130.394531 C 114.585938 132.089844 114.539062 133.117188 114.710938 134.824219 C 114.910156 136.851562 114.929688 137.957031 115.476562 139.980469 C 116.078125 142.199219 116.988281 144.644531 118.105469 146.96875 Z M 116.847656 147.625 " fill-opacity="1" fill-rule="nonzero"/><path fill="#ff300b" d="M 120.027344 145.96875 C 118.753906 143.445312 117.800781 140.761719 117.316406 137.984375 C 116.996094 136.042969 116.554688 131.570312 117.167969 129.78125 C 117.796875 127.957031 117.988281 128.390625 117.535156 126.40625 C 116.835938 123.367188 118.253906 119.753906 119.753906 117.140625 C 120.882812 115.203125 122.082031 114.929688 123.023438 113.5625 C 123.625 112.691406 124.195312 111.003906 124.78125 109.941406 C 125.101562 109.359375 125.480469 108.78125 125.847656 108.230469 C 127.632812 105.605469 129.613281 105.308594 132.269531 104.011719 C 133.851562 103.238281 135.203125 102.457031 136.859375 101.75 C 138.910156 100.871094 139.257812 100.855469 141.085938 99.394531 C 144.308594 96.820312 146.085938 97.238281 149.609375 98.199219 C 151.40625 98.6875 152.816406 99.035156 154.671875 99.34375 C 157.941406 99.890625 159.539062 100.640625 162.484375 102.019531 C 165.105469 103.257812 166.914062 104.503906 169.234375 106.199219 C 171.058594 107.527344 172.429688 108.246094 174.140625 109.871094 L 174.277344 110.003906 C 175.140625 110.84375 175.921875 111.746094 176.816406 112.898438 L 176.824219 112.90625 C 177.609375 113.929688 178.269531 114.566406 178.992188 115.269531 C 179.414062 115.675781 179.851562 116.101562 180.34375 116.617188 C 182.804688 119.210938 182.546875 121.796875 182.269531 124.605469 C 182.234375 124.949219 182.203125 125.296875 182.164062 125.824219 C 182.03125 127.691406 182.011719 129.320312 181.988281 130.914062 C 181.945312 134.242188 181.902344 137.433594 181.050781 141.257812 C 180.75 142.59375 180.316406 144.203125 179.746094 145.847656 L 175.855469 143.820312 C 176.230469 142.675781 176.539062 141.527344 176.773438 140.488281 L 176.8125 140.320312 C 177.484375 137.242188 177.785156 134.035156 177.371094 130.902344 C 177.148438 129.257812 176.9375 127.855469 177.472656 126.238281 C 177.738281 125.425781 177.863281 125.035156 177.945312 124.179688 C 178.121094 122.398438 178.285156 120.761719 177.195312 119.613281 C 176.75 119.144531 176.347656 118.753906 175.960938 118.382812 C 175.121094 117.566406 174.347656 116.816406 173.371094 115.542969 C 172.609375 114.5625 171.957031 113.808594 171.246094 113.117188 C 169.207031 111.171875 165.523438 108.046875 162.871094 107.238281 C 161.855469 106.933594 160.269531 106.863281 159.515625 106.28125 C 158.589844 105.558594 158.359375 104.648438 157.011719 104.117188 C 154.53125 103.167969 150.851562 102.644531 148.164062 102.136719 C 144.511719 101.449219 144.414062 103.0625 141.667969 104.492188 C 140.015625 105.351562 138.480469 105.972656 136.820312 106.933594 C 134.546875 108.246094 133.96875 108.84375 131.304688 109.402344 C 128.601562 109.972656 128.503906 111.671875 126.789062 113.484375 C 125.277344 115.082031 124.851562 115.417969 123.746094 117.441406 C 122.28125 120.140625 121.953125 121.300781 121.101562 124.195312 C 120.636719 125.769531 119.984375 127.539062 120.222656 129.1875 C 120.546875 131.472656 121.136719 132.644531 121.945312 134.742188 C 122.460938 136.082031 122.890625 137.453125 122.761719 138.90625 L 122.746094 139.113281 C 122.523438 141.179688 122.828125 142.46875 123.65625 144.074219 Z M 120.027344 145.96875 " fill-opacity="1" fill-rule="nonzero"/><path fill="#ff300b" d="M 126.53125 142.578125 C 125.621094 140.664062 124.90625 138.644531 124.378906 136.519531 C 123.613281 133.425781 123.914062 129.589844 124.042969 126.394531 C 124.175781 123.042969 125.359375 122.132812 127.136719 119.371094 C 127.332031 119.0625 129.347656 115.90625 129.40625 115.953125 C 131.089844 113.554688 130.914062 112.171875 134.179688 111.039062 C 135.679688 110.519531 136.710938 110.078125 138.152344 109.4375 C 139.175781 108.980469 140.292969 108.632812 141.269531 108.195312 C 143.46875 107.210938 143.863281 105.496094 146.972656 105.503906 C 149.03125 105.511719 151.878906 106.160156 153.878906 106.59375 C 157.679688 107.414062 161.089844 109.417969 164.203125 111.691406 C 166.183594 113.136719 168.492188 115.160156 169.984375 117.058594 C 171.003906 118.351562 171.636719 118.957031 172.929688 120.074219 C 175.984375 122.867188 173.988281 125.597656 173.960938 129.152344 C 173.949219 130.65625 174.050781 131.609375 173.851562 133.164062 C 173.496094 135.925781 173.0625 138.820312 172.605469 141.570312 C 172.574219 141.742188 172.542969 141.910156 172.507812 142.078125 L 170.75 141.160156 C 170.832031 141.019531 170.917969 140.871094 171.007812 140.722656 C 172.324219 138.5 172.464844 136.144531 172.078125 133.628906 C 171.902344 132.492188 171.746094 131.382812 171.5625 130.242188 C 171.117188 127.515625 172.859375 125.484375 171.578125 122.722656 C 171.40625 122.378906 171.246094 122.148438 171.011719 121.847656 C 170.082031 120.714844 169.222656 119.550781 168.3125 118.429688 C 166.59375 116.320312 164.261719 114.878906 162.015625 113.378906 C 159.824219 111.914062 156.140625 110.089844 153.566406 109.488281 C 151.640625 109.042969 150.46875 108.976562 148.566406 108.183594 C 145.945312 107.089844 145.710938 108.515625 143.707031 109.898438 C 142.359375 110.800781 140.621094 111.390625 139.128906 112.121094 C 137.78125 112.785156 137.011719 113.152344 135.742188 114.003906 C 134.105469 115.097656 134.335938 114.847656 133.390625 116.546875 C 132.601562 117.964844 131.773438 119.1875 130.488281 120.1875 C 128.976562 121.359375 128.6875 121.976562 128.339844 123.867188 C 128.042969 125.492188 127.65625 128.039062 127.777344 129.632812 C 127.964844 132.046875 128.078125 131.453125 127.523438 133.867188 C 127.132812 135.574219 127.4375 136.550781 127.976562 138.171875 C 128.320312 139.195312 128.742188 140.195312 129.226562 141.175781 Z M 126.53125 142.578125 " fill-opacity="1" fill-rule="nonzero"/><path fill="#ff300b" d="M 131.972656 139.746094 C 131.332031 137.539062 130.890625 134.335938 130.875 132.515625 C 130.828125 127.121094 130.8125 125.136719 133.949219 120.570312 C 134.53125 119.722656 134.804688 119.257812 135.328125 118.335938 C 136.503906 116.257812 137.945312 116.230469 139.90625 115.292969 C 140.925781 114.808594 141.789062 114.375 142.851562 113.972656 C 143.699219 113.648438 144.121094 113.351562 144.796875 112.777344 C 145.800781 111.925781 146.527344 111.304688 149.109375 111.867188 L 149.113281 111.871094 C 149.660156 111.992188 149.894531 112.046875 150.128906 112.101562 C 150.855469 112.269531 151.558594 112.433594 152.28125 112.570312 C 153.464844 112.789062 154.414062 113.085938 155.335938 113.464844 C 156.261719 113.84375 157.113281 114.292969 158.117188 114.824219 C 159.414062 115.527344 160.605469 116.355469 161.917969 117.078125 C 164.246094 118.363281 163.964844 118.5625 165.570312 120.65625 C 167.382812 123.023438 169.671875 123.183594 169.128906 127.105469 C 168.875 128.929688 168.507812 130.496094 168.355469 132.390625 C 168.191406 134.425781 168.097656 135.679688 167.640625 137.703125 C 167.449219 138.554688 167.402344 138.988281 167.4375 139.4375 L 165.90625 138.640625 C 166.027344 137.832031 166.328125 137.078125 166.503906 136.117188 C 166.871094 134.136719 166.980469 131.949219 167.277344 129.910156 C 167.433594 128.84375 167.882812 126.335938 167.609375 125.328125 C 167.261719 124.050781 165.832031 123.25 164.960938 122.3125 C 163.707031 120.957031 163.496094 119.609375 161.746094 118.667969 C 160.832031 118.175781 160.109375 117.773438 159.214844 117.175781 C 158.628906 116.785156 158.058594 116.445312 157.4375 116.109375 C 156.445312 115.582031 155.609375 115.144531 154.785156 114.804688 C 153.953125 114.460938 153.09375 114.191406 152.023438 113.992188 C 151.199219 113.839844 150.507812 113.679688 149.800781 113.515625 C 149.378906 113.417969 148.953125 113.316406 148.804688 113.285156 C 146.917969 112.875 146.417969 113.300781 145.734375 113.882812 C 144.132812 115.242188 143 115.4375 141.132812 116.203125 C 139.980469 116.675781 137.925781 117.269531 137.085938 118.152344 C 136.527344 118.742188 136.066406 119.722656 135.582031 120.4375 C 132.878906 124.433594 131.722656 126.191406 131.746094 131.160156 C 131.753906 132.839844 131.898438 136.234375 132.433594 137.75 C 132.605469 138.242188 132.839844 138.707031 133.113281 139.148438 Z M 131.972656 139.746094 " fill-opacity="1" fill-rule="nonzero"/><path fill="#ff300b" d="M 159.554688 120.039062 C 161.027344 121.160156 161.386719 121.710938 162.492188 123.0625 C 164.296875 125.265625 164.722656 124.878906 164.363281 128.257812 C 164.097656 130.941406 164.582031 132.859375 163.175781 135.351562 C 162.742188 136.121094 162.53125 136.507812 162.429688 136.828125 L 161.570312 136.378906 C 162.859375 133.53125 162.332031 131.035156 162.515625 127.992188 C 162.648438 125.953125 162.085938 125.867188 160.605469 124.644531 C 159.585938 123.800781 159.128906 123.234375 157.925781 122.488281 C 156.484375 121.59375 156.808594 121.8125 155.359375 122.21875 C 154.066406 122.585938 153.585938 121.367188 152.800781 120.464844 C 151.605469 119.097656 150.46875 118.421875 148.710938 117.933594 C 147.242188 117.527344 147.125 118.417969 145.96875 118.957031 C 145.046875 119.382812 144.105469 119.738281 143.179688 120.144531 C 142.230469 120.574219 141.761719 120.648438 140.785156 120.90625 C 140.789062 120.90625 140.199219 121.050781 139.882812 121.515625 C 139.585938 121.949219 139.289062 122.714844 138.933594 123.265625 C 136.8125 126.566406 135.777344 127.941406 136.460938 131.996094 C 136.730469 133.5625 137.09375 135.226562 137.757812 136.730469 L 135.804688 137.75 C 135.476562 136.957031 135.199219 136.132812 134.90625 135.179688 C 134.238281 133.019531 134.621094 131.226562 134.734375 129.019531 C 134.902344 125.769531 135.820312 124.683594 137.570312 121.910156 C 137.574219 121.917969 138.550781 120.210938 138.601562 120.140625 C 139.476562 118.941406 141.144531 118.558594 142.488281 118.066406 C 143.773438 117.59375 144.554688 117.519531 145.664062 116.617188 C 147.183594 115.386719 148.0625 115.644531 149.8125 116.054688 C 151.734375 116.507812 153.234375 116.824219 155.101562 117.554688 C 157.132812 118.347656 157.820312 118.726562 159.554688 120.039062 " fill-opacity="1" fill-rule="nonzero"/><path fill="#ff300b" d="M 159.453125 129.21875 C 159.445312 129.320312 159.433594 129.421875 159.421875 129.585938 C 159.3125 131.257812 159.441406 132.554688 159.082031 134.261719 C 159.035156 134.484375 158.972656 134.730469 158.898438 134.988281 L 154.648438 132.777344 C 154.828125 132.570312 155.167969 132.277344 155.703125 131.820312 L 156.054688 131.515625 C 157.226562 130.519531 158.144531 130.03125 158.027344 128.34375 C 157.957031 127.683594 157.386719 127.34375 156.9375 126.929688 C 156.121094 126.160156 155.808594 125.765625 154.816406 125.121094 C 153.5 124.269531 152.902344 123.78125 151.367188 123.269531 C 150.640625 123.027344 149.027344 122.171875 148.394531 122.269531 C 147.542969 122.402344 147.714844 123.535156 147.925781 124.125 C 148.261719 125.0625 148.691406 125.472656 147.425781 124.707031 C 146.3125 124.035156 144.785156 123.238281 143.738281 124.511719 C 142.785156 125.675781 144.316406 127.703125 143.621094 128.433594 C 143.101562 128.980469 142.378906 129.242188 141.757812 130.019531 C 141.15625 130.769531 141.28125 131.441406 141.332031 132.351562 C 141.40625 133.179688 141.566406 133.921875 141.914062 134.566406 L 140.496094 135.304688 C 140.105469 134.394531 139.863281 133.4375 139.863281 132.484375 C 139.871094 130.820312 139.808594 128.617188 140.847656 127.234375 C 141.542969 126.3125 141.625 126.300781 142.09375 125.207031 C 142.691406 123.804688 143.378906 123.363281 144.726562 122.621094 C 144.890625 122.527344 145.054688 122.445312 145.222656 122.355469 C 146.054688 121.957031 147.261719 121.382812 148.1875 121.453125 C 149.019531 121.511719 149.953125 121.746094 150.78125 121.90625 C 152.742188 122.277344 153.574219 122.894531 155.21875 123.890625 C 156.203125 124.492188 156.832031 124.699219 157.730469 125.632812 C 157.679688 125.582031 159.082031 126.84375 159.34375 127.492188 C 159.570312 128.058594 159.511719 128.628906 159.453125 129.21875 " fill-opacity="1" fill-rule="nonzero"/><path fill="#ff300b" d="M 144.945312 132.988281 C 144.816406 132.671875 144.71875 132.34375 144.675781 132.03125 C 144.628906 131.703125 144.609375 131.296875 144.625 130.902344 C 144.636719 130.539062 144.679688 130.171875 144.761719 129.867188 L 144.765625 129.859375 C 144.933594 129.246094 145.25 128.8125 145.582031 128.351562 L 145.625 128.296875 C 145.667969 128.234375 145.71875 128.148438 145.761719 128.070312 C 145.945312 127.753906 146.085938 127.511719 146.601562 127.320312 L 146.605469 127.320312 L 146.625 127.316406 C 146.875 127.222656 147 127.175781 147.246094 127.058594 C 147.339844 127.011719 147.4375 126.96875 147.546875 126.925781 C 147.652344 126.878906 147.742188 126.84375 147.828125 126.808594 C 147.957031 126.757812 148.042969 126.683594 148.117188 126.621094 C 148.4375 126.347656 148.671875 126.148438 149.46875 126.320312 L 149.472656 126.324219 L 149.707031 126.378906 L 149.710938 126.378906 C 149.882812 126.417969 150.050781 126.457031 150.191406 126.484375 C 150.496094 126.539062 150.742188 126.617188 150.980469 126.714844 C 151.226562 126.816406 151.425781 126.921875 151.664062 127.046875 C 152.023438 127.238281 152.308594 127.449219 152.628906 127.683594 L 152.65625 127.703125 L 152.65625 127.707031 C 152.835938 127.839844 152.972656 127.949219 153.097656 128.070312 C 153.226562 128.199219 153.34375 128.332031 153.476562 128.503906 C 153.574219 128.628906 153.65625 128.710938 153.75 128.800781 C 153.8125 128.859375 153.875 128.921875 153.945312 128.996094 C 154.492188 129.652344 154.261719 130.246094 154.25 131.042969 C 154.242188 131.519531 154.21875 132.023438 154.136719 132.511719 L 151.273438 131.019531 C 152.03125 130.570312 152.761719 130.082031 151.46875 130.570312 C 151.011719 130.746094 151.066406 130.742188 150.859375 130.386719 C 150.46875 129.710938 151.171875 127.695312 149.160156 127.449219 C 148.757812 127.398438 148.671875 127.824219 148.273438 127.984375 C 147.96875 128.085938 146.980469 128.328125 146.8125 128.578125 C 146.152344 129.558594 145.523438 130.429688 145.96875 131.652344 C 146.0625 131.917969 146.191406 132.113281 146.339844 132.261719 Z M 144.945312 132.988281 " fill-opacity="1" fill-rule="nonzero"/><g clip-path="url(#a7f76b492f)"><path fill="#ff300b" d="M 150 142.511719 L 202.449219 170.804688 L 198.96875 170.804688 L 150 144.390625 L 101.03125 170.804688 L 97.550781 170.804688 Z M 150 132.453125 L 221.089844 170.804688 L 205.679688 170.804688 L 150 140.769531 L 94.320312 170.804688 L 78.90625 170.804688 Z M 150 132.453125 " fill-opacity="1" fill-rule="evenodd"/></g><path fill="#ff300b" d="M 151.039062 153.675781 L 156.71875 153.675781 L 156.71875 159.355469 L 151.039062 159.355469 Z M 143.277344 161.4375 L 148.960938 161.4375 L 148.960938 167.117188 L 143.277344 167.117188 Z M 151.039062 161.4375 L 156.71875 161.4375 L 156.71875 167.117188 L 151.039062 167.117188 Z M 143.277344 153.675781 L 148.960938 153.675781 L 148.960938 159.355469 L 143.277344 159.355469 Z M 143.277344 153.675781 " fill-opacity="1" fill-rule="evenodd"/></svg>